<svg id="bubbles" xmlns="http://www.w3.org/2000/svg" width="1366" height="768" viewBox="0 0 1366 768">
  <path id="Combined-Shape" d="M139.636,150.261c58.677,0,106.244-26.162,106.244-58.435S198.313,33.391,139.636,33.391,33.391,59.553,33.391,91.826,80.959,150.261,139.636,150.261Zm728.533,208.7c58.677,0,106.245-26.162,106.245-58.435s-47.567-58.435-106.245-58.435-106.244,26.162-106.244,58.435S809.492,358.957,868.169,358.957ZM215.525,300.522c25.148,0,45.533-11.212,45.533-25.043s-20.385-25.043-45.533-25.043-45.533,11.212-45.533,25.043S190.377,300.522,215.525,300.522Zm956.2,258.783c25.148,0,45.533-11.212,45.533-25.043s-20.385-25.043-45.533-25.043-45.533,11.212-45.533,25.043S1146.577,559.3,1171.725,559.3Zm-683,192c25.148,0,45.533-11.212,45.533-25.043s-20.385-25.043-45.533-25.043-45.533,11.212-45.533,25.043S463.577,751.3,488.725,751.3ZM1338.68,116.87c25.148,0,45.534-11.212,45.534-25.043s-20.385-25.043-45.534-25.043-45.533,11.212-45.533,25.043S1313.532,116.87,1338.68,116.87ZM154.814,717.913c33.529,0,60.711-14.95,60.711-33.391s-27.182-33.391-60.711-33.391S94.1,666.081,94.1,684.522,121.284,717.913,154.814,717.913ZM579.791,175.3c33.529,0,60.711-14.95,60.711-33.391s-27.182-33.391-60.711-33.391-60.711,14.95-60.711,33.391S546.262,175.3,579.791,175.3ZM928.88,83.478c41.912,0,75.889-18.687,75.889-41.739S970.792,0,928.88,0s-75.889,18.687-75.889,41.739S886.968,83.478,928.88,83.478Zm-91.067,500.87c33.529,0,60.711-14.95,60.711-33.391s-27.182-33.391-60.711-33.391S777.1,532.515,777.1,550.957,804.284,584.348,837.813,584.348ZM1277.969,768c41.912,0,75.889-18.687,75.889-41.739s-33.977-41.739-75.889-41.739-75.889,18.687-75.889,41.739S1236.057,768,1277.969,768Zm-819.6-242.087c41.912,0,75.889-18.687,75.889-41.739s-33.977-41.739-75.889-41.739-75.889,18.687-75.889,41.739S416.457,525.913,458.369,525.913ZM1323.5,417.391c41.912,0,75.889-18.687,75.889-41.739s-33.977-41.739-75.889-41.739-75.889,18.687-75.889,41.739S1281.591,417.391,1323.5,417.391Zm-136.6-175.3c16.765,0,30.356-7.475,30.356-16.7s-13.59-16.7-30.356-16.7-30.355,7.475-30.355,16.7S1170.137,242.087,1186.9,242.087ZM883.347,759.652c16.765,0,30.355-7.475,30.355-16.7s-13.59-16.7-30.355-16.7-30.356,7.475-30.356,16.7S866.581,759.652,883.347,759.652ZM503.9,342.261c16.765,0,30.355-7.475,30.355-16.7s-13.59-16.7-30.355-16.7-30.356,7.475-30.356,16.7S487.137,342.261,503.9,342.261ZM154.814,500.87c16.765,0,30.356-7.475,30.356-16.7s-13.59-16.7-30.356-16.7-30.356,7.475-30.356,16.7S138.048,500.87,154.814,500.87Z" transform="translate(-33.391)" fill="#2b2e4a" fill-rule="evenodd" fill-opacity=".2"/>
</svg>
